<svg width="155" height="27" viewBox="0 0 155 27" fill="none" xmlns="http://www.w3.org/2000/svg">
<path d="M19.488 3.344C19.4027 4.24 19.3387 5.11467 19.296 5.968C19.2747 6.8 19.264 7.44 19.264 7.888C19.264 8.37867 19.2747 8.848 19.296 9.296C19.3173 9.744 19.3387 10.128 19.36 10.448H18.624C18.4107 8.848 18.1227 7.58933 17.76 6.672C17.4187 5.75467 16.9173 5.09333 16.256 4.688C15.5947 4.28267 14.6453 4.08 13.408 4.08H12.032V22.32C12.032 23.1733 12.1067 23.8133 12.256 24.24C12.4267 24.6667 12.7467 24.9547 13.216 25.104C13.7067 25.232 14.4107 25.3173 15.328 25.36V26C14.7307 25.9573 13.9627 25.936 13.024 25.936C12.0853 25.9147 11.1253 25.904 10.144 25.904C9.12 25.904 8.14933 25.9147 7.232 25.936C6.336 25.936 5.61067 25.9573 5.056 26V25.36C5.97333 25.3173 6.66667 25.232 7.136 25.104C7.60533 24.9547 7.92533 24.6667 8.096 24.24C8.26667 23.8133 8.352 23.1733 8.352 22.32V4.08H6.944C5.74933 4.08 4.81067 4.28267 4.128 4.688C3.44533 5.09333 2.93333 5.75467 2.592 6.672C2.25067 7.58933 1.97333 8.848 1.76 10.448H1.024C1.06667 10.128 1.088 9.744 1.088 9.296C1.10933 8.848 1.12 8.37867 1.12 7.888C1.12 7.44 1.09867 6.8 1.056 5.968C1.03467 5.11467 0.981333 4.24 0.896 3.344C1.81333 3.36533 2.816 3.38667 3.904 3.408C4.992 3.42933 6.09067 3.44 7.2 3.44C8.30933 3.44 9.312 3.44 10.208 3.44C11.104 3.44 12.096 3.44 13.184 3.44C14.272 3.44 15.3707 3.42933 16.48 3.408C17.5893 3.38667 18.592 3.36533 19.488 3.344ZM26.5875 0.943998V12.592C27.1208 11.2693 27.8675 10.352 28.8275 9.84C29.8088 9.30667 30.8435 9.04 31.9315 9.04C32.7848 9.04 33.4782 9.15733 34.0115 9.392C34.5662 9.60533 35.0248 9.904 35.3875 10.288C35.7715 10.6933 36.0488 11.216 36.2195 11.856C36.3902 12.496 36.4755 13.36 36.4755 14.448V23.024C36.4755 23.92 36.6462 24.528 36.9875 24.848C37.3502 25.168 37.9475 25.328 38.7795 25.328V26C38.3955 25.9787 37.8195 25.9573 37.0515 25.936C36.2835 25.8933 35.5368 25.872 34.8115 25.872C34.0648 25.872 33.3288 25.8933 32.6035 25.936C31.8995 25.9573 31.3768 25.9787 31.0355 26V25.328C31.7608 25.328 32.2728 25.168 32.5715 24.848C32.8702 24.528 33.0195 23.92 33.0195 23.024V13.552C33.0195 12.9333 32.9662 12.3787 32.8595 11.888C32.7528 11.376 32.5182 10.9707 32.1555 10.672C31.8142 10.352 31.3022 10.192 30.6195 10.192C29.8515 10.192 29.1582 10.416 28.5395 10.864C27.9422 11.2907 27.4622 11.888 27.0995 12.656C26.7582 13.424 26.5875 14.2987 26.5875 15.28V23.024C26.5875 23.92 26.7368 24.528 27.0355 24.848C27.3342 25.168 27.8462 25.328 28.5715 25.328V26C28.2088 25.9787 27.6755 25.9573 26.9715 25.936C26.2888 25.8933 25.5848 25.872 24.8595 25.872C24.1128 25.872 23.3448 25.8933 22.5555 25.936C21.7875 25.9573 21.2115 25.9787 20.8275 26V25.328C21.6595 25.328 22.2462 25.168 22.5875 24.848C22.9502 24.528 23.1315 23.92 23.1315 23.024V4.784C23.1315 3.824 22.9608 3.12 22.6195 2.672C22.2995 2.20267 21.7022 1.968 20.8275 1.968V1.296C21.5102 1.36 22.1715 1.392 22.8115 1.392C23.5155 1.392 24.1875 1.36 24.8275 1.296C25.4675 1.21067 26.0542 1.09333 26.5875 0.943998ZM48.0188 9.04C49.8961 9.04 51.3681 9.60533 52.4348 10.736C53.5014 11.8667 54.0348 13.6587 54.0348 16.112H42.9948L42.9308 15.504H50.6428C50.6641 14.4587 50.5788 13.4987 50.3868 12.624C50.1948 11.728 49.8961 11.0133 49.4908 10.48C49.0854 9.94667 48.5521 9.68 47.8908 9.68C46.9734 9.68 46.1734 10.1707 45.4908 11.152C44.8294 12.112 44.4241 13.6587 44.2748 15.792L44.3708 15.952C44.3494 16.2507 44.3281 16.5813 44.3068 16.944C44.2854 17.2853 44.2748 17.6267 44.2748 17.968C44.2748 19.44 44.4988 20.6773 44.9468 21.68C45.3948 22.6827 45.9814 23.44 46.7068 23.952C47.4321 24.4427 48.1681 24.688 48.9148 24.688C49.4908 24.688 50.0454 24.6027 50.5788 24.432C51.1334 24.24 51.6561 23.9307 52.1468 23.504C52.6374 23.056 53.0748 22.448 53.4588 21.68L54.0988 21.936C53.8428 22.6613 53.4481 23.376 52.9148 24.08C52.3814 24.784 51.6988 25.36 50.8668 25.808C50.0348 26.2347 49.0641 26.448 47.9548 26.448C46.4614 26.448 45.1601 26.1173 44.0508 25.456C42.9414 24.7733 42.0881 23.8027 41.4908 22.544C40.8934 21.2853 40.5948 19.792 40.5948 18.064C40.5948 16.1653 40.9041 14.544 41.5228 13.2C42.1414 11.856 43.0054 10.832 44.1148 10.128C45.2454 9.40267 46.5468 9.04 48.0188 9.04ZM67.0885 9.04C67.8992 9.04 68.5818 9.15733 69.1365 9.392C69.6912 9.60533 70.1392 9.904 70.4805 10.288C70.8645 10.6933 71.1312 11.2373 71.2805 11.92C71.4298 12.5813 71.5045 13.424 71.5045 14.448V23.024C71.5045 23.92 71.6752 24.528 72.0165 24.848C72.3578 25.168 72.9338 25.328 73.7445 25.328V26C73.3818 25.9787 72.8165 25.9573 72.0485 25.936C71.3018 25.8933 70.5658 25.872 69.8405 25.872C69.1152 25.872 68.4005 25.8933 67.6965 25.936C67.0138 25.9573 66.4912 25.9787 66.1285 26V25.328C66.8325 25.328 67.3232 25.168 67.6005 24.848C67.8992 24.528 68.0485 23.92 68.0485 23.024V13.552C68.0485 12.9333 68.0058 12.3787 67.9205 11.888C67.8352 11.376 67.6325 10.9707 67.3125 10.672C67.0138 10.352 66.5338 10.192 65.8725 10.192C65.1258 10.192 64.4538 10.416 63.8565 10.864C63.2805 11.312 62.8112 11.9307 62.4485 12.72C62.1072 13.488 61.9365 14.352 61.9365 15.312V23.024C61.9365 23.92 62.0858 24.528 62.3845 24.848C62.6832 25.168 63.1738 25.328 63.8565 25.328V26C63.5152 25.9787 63.0032 25.9573 62.3205 25.936C61.6378 25.8933 60.9338 25.872 60.2085 25.872C59.4832 25.872 58.7258 25.8933 57.9365 25.936C57.1472 25.9573 56.5605 25.9787 56.1765 26V25.328C57.0085 25.328 57.5952 25.168 57.9365 24.848C58.2992 24.528 58.4805 23.92 58.4805 23.024V12.976C58.4805 12.016 58.3205 11.312 58.0005 10.864C57.6805 10.3947 57.0725 10.16 56.1765 10.16V9.488C56.8592 9.552 57.5205 9.584 58.1605 9.584C58.8858 9.584 59.5578 9.552 60.1765 9.488C60.8165 9.40267 61.4032 9.28533 61.9365 9.136V12.624C62.4912 11.344 63.2272 10.4267 64.1445 9.872C65.0832 9.31733 66.0645 9.04 67.0885 9.04ZM76.7205 9.04C77.5312 9.04 78.2138 9.15733 78.7685 9.392C79.3232 9.60533 79.7712 9.904 80.1125 10.288C80.4965 10.6933 80.7632 11.2373 80.9125 11.92C81.0618 12.5813 81.1365 13.424 81.1365 14.448V23.024C81.1365 23.92 81.3072 24.528 81.6485 24.848C82.0112 25.168 82.6085 25.328 83.4405 25.328V26C83.0778 25.9787 82.5125 25.9573 81.7445 25.936C80.9765 25.8933 80.2192 25.872 79.4725 25.872C78.7472 25.872 78.0325 25.8933 77.3285 25.936C76.6458 25.9573 76.1232 25.9787 75.7605 26V25.328C76.4645 25.328 76.9552 25.168 77.2325 24.848C77.5312 24.528 77.6805 23.92 77.6805 23.024V13.552C77.6805 12.9333 77.6378 12.3787 77.5525 11.888C77.4672 11.376 77.2645 10.9707 76.9445 10.672C76.6245 10.352 76.1232 10.192 75.4405 10.192C74.6938 10.192 74.0218 10.4267 73.4245 10.896C72.8485 11.344 72.3792 11.9627 72.0165 12.752C71.6752 13.52 71.5045 14.384 71.5045 15.344L71.3765 12.688C71.9525 11.28 72.7205 10.32 73.6805 9.808C74.6618 9.296 75.6752 9.04 76.7205 9.04ZM89.2823 26.224C88.3863 26.224 87.6183 26.0533 86.9783 25.712C86.3383 25.3707 85.8583 24.9013 85.5383 24.304C85.2183 23.7067 85.0583 23.024 85.0583 22.256C85.0583 21.3173 85.2716 20.56 85.6983 19.984C86.1249 19.3867 86.6689 18.9067 87.3303 18.544C88.0129 18.1813 88.7276 17.8827 89.4743 17.648C90.2423 17.392 90.9569 17.1573 91.6183 16.944C92.3009 16.7093 92.8556 16.4427 93.2823 16.144C93.7303 15.8453 93.9543 15.4507 93.9543 14.96V12.784C93.9543 12.016 93.8263 11.408 93.5703 10.96C93.3356 10.4907 93.0049 10.16 92.5783 9.968C92.1729 9.776 91.6823 9.68 91.1063 9.68C90.6156 9.68 90.0929 9.75467 89.5383 9.904C88.9836 10.032 88.5463 10.2987 88.2263 10.704C88.6956 10.832 89.0796 11.088 89.3783 11.472C89.6983 11.8347 89.8583 12.2933 89.8583 12.848C89.8583 13.4453 89.6556 13.9147 89.2503 14.256C88.8663 14.5973 88.3756 14.768 87.7783 14.768C87.1169 14.768 86.6263 14.5653 86.3063 14.16C85.9863 13.7333 85.8263 13.2427 85.8263 12.688C85.8263 12.112 85.9649 11.6427 86.2423 11.28C86.5409 10.9173 86.9249 10.576 87.3943 10.256C87.9063 9.91467 88.5569 9.62667 89.3463 9.392C90.1569 9.15733 91.0529 9.04 92.0343 9.04C92.9516 9.04 93.7409 9.14667 94.4023 9.36C95.0849 9.552 95.6503 9.872 96.0983 10.32C96.6316 10.8107 96.9836 11.4293 97.1543 12.176C97.3249 12.9013 97.4103 13.7867 97.4103 14.832V23.664C97.4103 24.1973 97.4743 24.5813 97.6023 24.816C97.7516 25.0293 97.9863 25.136 98.3063 25.136C98.5196 25.136 98.7223 25.0827 98.9143 24.976C99.1276 24.8693 99.3729 24.7093 99.6503 24.496L99.9703 25.04C99.5223 25.4027 99.0636 25.6907 98.5943 25.904C98.1463 26.1173 97.5703 26.224 96.8663 26.224C96.1836 26.224 95.6289 26.1173 95.2023 25.904C94.7756 25.6907 94.4556 25.3813 94.2423 24.976C94.0503 24.5707 93.9543 24.0693 93.9543 23.472C93.3996 24.368 92.7383 25.0507 91.9703 25.52C91.2023 25.9893 90.3063 26.224 89.2823 26.224ZM90.8183 24.688C91.4156 24.688 91.9703 24.5173 92.4823 24.176C93.0156 23.8347 93.5063 23.3227 93.9543 22.64V16.272C93.7196 16.6133 93.3783 16.912 92.9303 17.168C92.4823 17.4027 92.0023 17.648 91.4903 17.904C90.9783 18.16 90.4876 18.4587 90.0183 18.8C89.5703 19.12 89.1969 19.536 88.8983 20.048C88.5996 20.56 88.4503 21.2107 88.4503 22C88.4503 22.832 88.6636 23.4933 89.0903 23.984C89.5169 24.4533 90.0929 24.688 90.8183 24.688Z" fill="black"/>
<path d="M106.527 4.208V9.52H110.943V10.16H106.527V22.736C106.527 23.6107 106.687 24.2293 107.007 24.592C107.327 24.9547 107.785 25.136 108.383 25.136C108.937 25.136 109.428 24.912 109.855 24.464C110.303 24.016 110.687 23.2587 111.007 22.192L111.615 22.416C111.359 23.5467 110.9 24.5067 110.239 25.296C109.599 26.064 108.649 26.448 107.391 26.448C106.665 26.448 106.057 26.352 105.567 26.16C105.076 25.9893 104.649 25.7333 104.286 25.392C103.817 24.9013 103.497 24.3147 103.327 23.632C103.156 22.9493 103.071 22.0427 103.071 20.912V10.16H100.127V9.52H103.071V4.848C103.732 4.82667 104.351 4.77333 104.927 4.688C105.503 4.58133 106.036 4.42133 106.527 4.208ZM116.048 1.424C116.709 1.424 117.264 1.63733 117.712 2.064C118.16 2.46933 118.384 2.98133 118.384 3.6C118.384 4.21867 118.16 4.74133 117.712 5.168C117.264 5.57333 116.709 5.776 116.048 5.776C115.386 5.776 114.832 5.57333 114.384 5.168C113.936 4.74133 113.712 4.21867 113.712 3.6C113.712 2.98133 113.936 2.46933 114.384 2.064C114.832 1.63733 115.386 1.424 116.048 1.424ZM117.968 9.136V23.024C117.968 23.92 118.138 24.528 118.48 24.848C118.842 25.168 119.44 25.328 120.272 25.328V26C119.909 25.9787 119.344 25.9573 118.576 25.936C117.829 25.8933 117.061 25.872 116.272 25.872C115.525 25.872 114.757 25.8933 113.968 25.936C113.178 25.9573 112.592 25.9787 112.208 26V25.328C113.04 25.328 113.626 25.168 113.968 24.848C114.33 24.528 114.512 23.92 114.512 23.024V12.976C114.512 12.016 114.352 11.312 114.032 10.864C113.712 10.3947 113.104 10.16 112.208 10.16V9.488C112.89 9.552 113.552 9.584 114.192 9.584C114.917 9.584 115.589 9.552 116.208 9.488C116.848 9.40267 117.434 9.28533 117.968 9.136ZM129.93 9.04C130.655 9.04 131.348 9.136 132.01 9.328C132.671 9.49867 133.247 9.744 133.738 10.064C134.25 10.384 134.634 10.768 134.89 11.216C135.167 11.664 135.306 12.1547 135.306 12.688C135.306 13.328 135.124 13.8293 134.762 14.192C134.399 14.5547 133.93 14.736 133.354 14.736C132.778 14.736 132.298 14.576 131.914 14.256C131.53 13.936 131.338 13.4773 131.338 12.88C131.338 12.3253 131.498 11.8773 131.818 11.536C132.138 11.1733 132.511 10.9387 132.938 10.832C132.746 10.512 132.404 10.2453 131.914 10.032C131.444 9.79733 130.932 9.68 130.378 9.68C129.802 9.68 129.247 9.82933 128.714 10.128C128.202 10.4267 127.743 10.8853 127.338 11.504C126.932 12.1227 126.602 12.9227 126.346 13.904C126.111 14.8853 125.994 16.0693 125.994 17.456C125.994 19.248 126.196 20.6773 126.602 21.744C127.028 22.7893 127.583 23.536 128.266 23.984C128.948 24.432 129.684 24.656 130.474 24.656C130.986 24.656 131.508 24.56 132.042 24.368C132.596 24.176 133.119 23.856 133.61 23.408C134.122 22.96 134.57 22.352 134.954 21.584L135.562 21.808C135.327 22.512 134.954 23.2267 134.442 23.952C133.951 24.6773 133.3 25.2747 132.49 25.744C131.679 26.2133 130.687 26.448 129.514 26.448C128.17 26.448 126.954 26.1173 125.866 25.456C124.778 24.7947 123.914 23.8347 123.274 22.576C122.634 21.296 122.314 19.7387 122.314 17.904C122.314 16.112 122.634 14.5547 123.274 13.232C123.935 11.888 124.842 10.8533 125.994 10.128C127.146 9.40267 128.458 9.04 129.93 9.04ZM142.994 0.911999V23.024C142.994 23.92 143.143 24.528 143.442 24.848C143.762 25.168 144.295 25.328 145.042 25.328V26C144.679 25.9787 144.135 25.9573 143.41 25.936C142.706 25.8933 141.991 25.872 141.266 25.872C140.519 25.872 139.751 25.8933 138.962 25.936C138.194 25.9573 137.618 25.9787 137.234 26V25.328C138.066 25.328 138.652 25.168 138.994 24.848C139.356 24.528 139.538 23.92 139.538 23.024V4.752C139.538 3.792 139.367 3.088 139.026 2.64C138.706 2.17067 138.108 1.936 137.234 1.936V1.264C137.916 1.328 138.578 1.36 139.218 1.36C139.922 1.36 140.594 1.328 141.234 1.264C141.874 1.17867 142.46 1.06133 142.994 0.911999ZM153.234 9.488V10.128C152.658 10.2133 152.103 10.4053 151.57 10.704C151.036 11.0027 150.514 11.4187 150.002 11.952L146.162 15.984L146.578 15.184L152.37 23.664C152.69 24.112 152.999 24.4853 153.298 24.784C153.596 25.0613 153.97 25.2427 154.418 25.328V26C154.14 25.9787 153.724 25.9573 153.17 25.936C152.636 25.8933 152.103 25.872 151.57 25.872C150.866 25.872 150.151 25.8933 149.426 25.936C148.7 25.9573 148.167 25.9787 147.826 26V25.328C148.252 25.328 148.54 25.2213 148.69 25.008C148.86 24.7947 148.839 24.5387 148.626 24.24L145.106 18.736C144.743 18.224 144.412 17.8933 144.114 17.744C143.815 17.5947 143.388 17.5093 142.834 17.488V16.848C143.452 16.784 143.954 16.6667 144.338 16.496C144.743 16.3253 145.116 16.048 145.458 15.664L147.858 13.232C148.54 12.5493 148.882 11.984 148.882 11.536C148.882 11.0667 148.658 10.7253 148.21 10.512C147.783 10.2773 147.207 10.1493 146.482 10.128V9.488C147.058 9.50933 147.687 9.54133 148.37 9.584C149.074 9.60533 149.66 9.616 150.13 9.616C150.514 9.616 150.898 9.616 151.282 9.616C151.687 9.59467 152.06 9.57333 152.402 9.552C152.743 9.53067 153.02 9.50933 153.234 9.488Z" fill="#49A078"/>
</svg>
